<?xml version="1.0" standalone="no"?>
<!DOCTYPE svg PUBLIC "-//W3C//DTD SVG 20010904//EN"
 "http://www.w3.org/TR/2001/REC-SVG-20010904/DTD/svg10.dtd">
<svg version="1.0" xmlns="http://www.w3.org/2000/svg"
 width="300.000000pt" height="300.000000pt" viewBox="0 0 300.000000 300.000000"
 preserveAspectRatio="xMidYMid meet">
<metadata>
Created by potrace 1.10, written by Peter Selinger 2001-2011
</metadata>
<g transform="translate(0.000000,300.000000) scale(0.100000,-0.100000)"
fill="#000000" stroke="none">
<path d="M284 2653 c-9 -21 -27 -87 -39 -148 -69 -329 -66 -637 7 -865 48
-152 171 -327 273 -390 24 -15 53 -53 91 -118 31 -53 89 -151 128 -217 39 -66
72 -123 74 -126 1 -3 -46 -4 -105 -1 -148 6 -143 11 -196 -202 l-42 -168 -129
-1 c-114 -2 -129 -4 -142 -21 -18 -26 -18 -51 2 -70 14 -14 145 -16 1294 -16
1149 0 1280 2 1294 16 20 19 20 44 2 70 -14 18 -30 19 -313 21 l-298 2 -45
172 c-33 123 -51 175 -65 186 -15 11 -42 14 -112 11 -51 -2 -93 -2 -93 0 0 2
48 87 108 188 71 123 113 184 124 184 26 0 155 49 233 88 184 92 309 209 398
373 45 82 83 204 71 229 -10 21 -191 160 -209 160 -6 0 -58 -16 -115 -35 -57
-19 -105 -34 -106 -32 -2 1 1 32 6 67 5 36 10 104 10 151 0 124 4 121 -220
167 -102 22 -193 36 -202 33 -9 -3 -51 -55 -93 -116 -78 -111 -140 -189 -203
-257 l-35 -36 -82 325 c-46 179 -90 332 -98 340 -21 21 -443 21 -464 0 -13
-13 -153 -606 -153 -648 0 -61 -59 52 -84 162 -22 92 -39 329 -31 429 10 130
19 124 -224 128 l-202 3 -15 -38z m312 -9 l81 -7 7 -186 c9 -268 45 -436 106
-501 59 -63 76 -31 150 296 33 148 65 286 71 307 l10 37 198 0 c154 0 201 -3
210 -13 6 -8 27 -76 46 -153 124 -484 128 -494 169 -494 35 0 135 111 265 292
34 48 66 90 71 93 16 10 333 -57 354 -74 17 -15 18 -27 12 -155 -6 -122 -5
-141 10 -157 22 -25 43 -24 137 6 43 14 86 25 96 25 17 0 134 -81 159 -110 30
-36 -19 -177 -102 -294 -106 -149 -270 -263 -482 -335 -60 -20 -97 -40 -115
-59 -28 -31 -186 -299 -203 -345 -10 -26 -8 -31 17 -53 25 -21 38 -24 107 -24
65 0 81 -3 89 -17 5 -10 25 -81 45 -158 31 -120 40 -144 66 -168 l30 -27 276
0 c181 0 273 -3 269 -10 -9 -14 -2495 -14 -2495 0 0 6 42 10 106 10 102 0 106
1 133 28 21 21 34 56 59 152 18 69 38 140 43 158 l11 32 91 0 c181 0 185 21
46 260 -134 232 -143 244 -222 308 -137 110 -224 275 -263 492 -18 101 -20
371 -4 492 15 116 50 287 66 326 l13 32 93 0 c51 0 129 -3 174 -6z"/>
<path d="M385 2621 c-11 -5 -28 -18 -38 -29 -26 -29 -64 -227 -79 -408 -37
-479 106 -805 415 -944 95 -42 116 -45 143 -19 l24 22 0 293 0 293 -41 43
c-22 23 -48 56 -59 73 -54 88 -90 279 -90 477 0 134 -8 169 -44 186 -28 14
-205 23 -231 13z m238 -234 c8 -283 46 -424 139 -521 l47 -49 3 -289 3 -290
-30 6 c-16 3 -68 25 -114 47 -302 149 -423 515 -345 1049 14 96 41 226 49 240
2 3 57 4 123 2 l119 -3 6 -192z"/>
<path d="M430 2295 c-6 -8 -16 -67 -22 -132 -12 -139 1 -310 32 -421 38 -137
122 -272 192 -308 27 -14 32 -14 54 1 39 25 32 62 -22 115 -25 24 -61 76 -80
115 -55 113 -68 190 -69 420 0 110 -4 206 -8 213 -11 17 -62 15 -77 -3z m45
-227 c0 -143 4 -201 19 -263 24 -104 73 -208 125 -267 44 -50 48 -58 27 -58
-21 0 -82 73 -115 138 -62 122 -82 230 -81 438 0 154 4 194 19 194 3 0 6 -82
6 -182z"/>
<path d="M1064 2555 c-30 -20 -35 -37 -111 -365 l-68 -295 -3 -332 -3 -332 28
-30 c27 -29 34 -31 143 -41 183 -17 471 -17 497 0 41 26 43 48 43 383 l0 322
-84 330 c-74 290 -87 332 -111 352 -25 22 -35 23 -168 23 -109 0 -147 -3 -163
-15z m322 -52 c4 -16 42 -166 85 -335 l79 -307 0 -336 0 -335 -162 0 c-90 0
-232 5 -315 12 l-153 11 0 316 -1 316 77 343 77 342 154 0 153 0 6 -27z"/>
<path d="M1173 2420 c-26 -11 -19 12 -93 -317 -65 -287 -66 -304 -20 -318 12
-4 31 0 43 8 19 12 30 51 76 258 30 134 56 250 59 257 2 6 14 12 26 12 48 0
65 66 24 94 -24 17 -80 20 -115 6z m77 -47 c0 -4 -12 -19 -26 -34 -22 -23 -34
-60 -70 -221 -56 -247 -64 -278 -77 -278 -6 0 -7 16 -3 43 9 55 106 479 112
489 6 10 64 11 64 1z"/>
<path d="M1988 2271 c-13 -11 -37 -39 -54 -63 -67 -99 -161 -214 -234 -287
-57 -57 -80 -88 -85 -112 -3 -19 -5 -158 -3 -310 3 -261 4 -278 23 -299 17
-19 27 -21 67 -17 98 12 260 113 350 218 93 110 195 297 227 415 18 68 41 245
41 314 0 93 -12 103 -169 135 -68 14 -127 25 -131 25 -4 0 -18 -9 -32 -19z
m167 -50 l130 -28 -3 -59 c-6 -114 -35 -290 -59 -359 -104 -289 -318 -512
-538 -559 l-30 -6 2 309 3 309 71 68 c66 64 173 197 248 307 17 26 35 47 39
47 4 -1 66 -13 137 -29z"/>
<path d="M2082 2107 c-6 -7 -16 -53 -22 -102 -26 -195 -118 -374 -257 -499
-64 -57 -55 -116 16 -116 31 0 146 121 212 223 76 118 113 215 133 352 14 97
14 112 0 132 -16 26 -64 32 -82 10z m48 -74 c0 -59 -30 -196 -58 -262 -60
-143 -230 -357 -259 -327 -4 3 21 34 53 68 138 145 202 281 239 511 7 43 25
50 25 10z"/>
<path d="M2460 1899 c-108 -35 -145 -64 -161 -123 -30 -112 -158 -321 -269
-439 -66 -71 -75 -101 -35 -119 52 -24 278 59 416 153 139 93 244 220 295 355
25 66 25 70 10 99 -21 37 -111 105 -140 105 -11 -1 -64 -15 -116 -31z m178
-46 c47 -34 52 -41 47 -68 -9 -51 -71 -167 -123 -228 -103 -121 -236 -207
-417 -270 -176 -61 -176 -61 -81 35 119 120 228 296 272 440 l18 58 101 34
c55 19 107 35 115 35 9 1 39 -16 68 -36z"/>
<path d="M727 1163 c-9 -11 -17 -28 -17 -37 0 -23 174 -322 206 -356 24 -24
29 -25 178 -28 l153 -3 31 26 32 27 0 138 c0 131 -1 140 -23 166 -22 25 -29
27 -159 35 -115 7 -205 19 -358 46 -17 3 -31 -2 -43 -14z m56 -28 c61 -18 238
-42 380 -50 l107 -7 0 -146 0 -147 -162 2 -163 2 -98 163 c-122 205 -118 198
-115 198 2 0 25 -7 51 -15z"/>
<path d="M1780 1149 c-47 -5 -154 -13 -238 -18 -208 -12 -202 -7 -202 -192 0
-76 3 -145 6 -154 14 -36 57 -45 225 -45 l162 0 41 44 c44 46 176 271 184 312
6 35 -23 64 -62 63 -17 -1 -69 -6 -116 -10z m102 -125 c-33 -55 -77 -130 -99
-167 l-41 -68 -181 -2 -181 -2 0 146 0 146 113 7 c156 10 430 35 435 41 3 3 7
3 9 1 2 -2 -23 -48 -55 -102z"/>
<path d="M636 698 c-20 -18 -33 -50 -56 -138 -16 -63 -30 -121 -30 -128 0 -7
11 -24 25 -37 l24 -25 724 0 724 0 28 22 c24 19 27 26 23 67 -9 81 -50 214
-74 238 l-23 23 -670 0 -670 0 -25 -22z m1402 -146 c17 -70 32 -130 32 -132 0
-3 -335 -5 -745 -5 -657 0 -745 2 -739 15 3 8 19 68 36 132 l31 118 676 0 676
0 33 -128z"/>
</g>
</svg>
