<svg xmlns="http://www.w3.org/2000/svg" class="fill-token" width="1111" height="675" viewBox="0 0 1111 675" version="1.1"><path d="M 869.342 155.479 C 847.460 159.450, 832.489 169.414, 826.915 183.715 C 823.714 191.928, 823.635 207.950, 826.753 216.360 C 832.803 232.675, 845.440 241.891, 878.261 253.925 C 903.339 263.119, 911.242 267.737, 914.926 275.346 C 921.041 287.979, 913.900 301.486, 898.423 306.559 C 889.124 309.606, 865.829 309.196, 852.930 305.758 C 843.118 303.142, 832.205 298.190, 826 293.538 L 822.500 290.914 822.220 304.068 C 822.033 312.856, 822.320 317.681, 823.084 318.601 C 824.664 320.505, 841.162 325.660, 851.741 327.556 C 856.559 328.420, 866.575 329.377, 874 329.684 C 905.138 330.973, 927.741 324.515, 940.742 310.616 C 956.726 293.530, 956.322 264.852, 939.853 247.439 C 930.672 237.731, 917.993 230.592, 892.333 220.682 C 880.244 216.013, 867.809 209.649, 863.663 206.009 C 854.626 198.074, 854.782 185.793, 864.004 179.112 C 870.507 174.402, 880.340 172.646, 896.859 173.246 C 912.473 173.814, 922.136 176.313, 934.750 183.047 L 942 186.917 942 175.423 L 942 163.929 937.418 161.965 C 931.753 159.536, 919.842 156.511, 910.308 155.080 C 900.737 153.643, 878.256 153.862, 869.342 155.479 M 159.255 254.750 L 159.586 350.500 162.218 361.148 C 174.296 410.018, 200.617 454.206, 233.379 480.611 C 250.605 494.495, 275.794 508.920, 291.832 514.085 L 298.929 516.371 307.714 513.064 C 342.272 500.059, 375.869 474.492, 396.499 445.500 C 413.959 420.963, 428.512 388.557, 435.144 359.452 C 437.401 349.545, 437.413 349.072, 437.739 254.250 L 438.067 159 298.496 159 L 158.924 159 159.255 254.750 M 478 242 L 478 325 489.492 325 L 500.985 325 501.242 264.433 L 501.500 203.866 542 261.675 C 578.071 313.163, 582.992 319.760, 587 321.993 C 591.175 324.319, 592.637 324.524, 607.250 324.838 L 623 325.176 623 242.088 L 623 159 611.508 159 L 600.016 159 599.758 219.250 L 599.500 279.500 562.056 226 C 515.309 159.208, 519.330 164.584, 513.865 161.562 C 509.446 159.120, 508.499 159, 493.615 159 L 478 159 478 242 M 656.260 220.250 C 656.583 275.288, 656.799 282.102, 658.390 287.437 C 663.200 303.571, 673.041 315.358, 687.198 321.942 C 700.514 328.135, 708.442 329.516, 730 329.401 C 750.729 329.290, 757.870 327.963, 770.618 321.849 C 779.910 317.392, 790.563 306.869, 794.761 298 C 800.757 285.331, 801 282.203, 801 217.542 L 801 159 784 159 L 767 159 767 213.428 C 767 246.421, 766.580 270.936, 765.933 275.678 C 763.931 290.367, 757.834 299.987, 747.215 305.215 C 740.794 308.376, 740.089 308.500, 728.521 308.500 C 717.379 308.500, 716.083 308.295, 710.797 305.700 C 703.696 302.212, 696.864 294.776, 693.804 287.202 L 691.500 281.500 691.214 220.250 L 690.927 159 673.414 159 L 655.901 159 656.260 220.250 M 356.385 176.556 C 350.501 178.730, 344.585 184.184, 341.588 190.199 C 338.596 196.204, 338.033 202.585, 340.582 201.607 C 341.452 201.273, 342.518 201, 342.952 201 C 343.385 201, 344.294 199.023, 344.970 196.606 C 347.611 187.176, 355.834 181.063, 365.934 181.022 C 376.415 180.980, 384.472 187.462, 386.991 197.964 C 389.904 210.103, 379.307 224, 367.139 224 C 364.297 224, 363 225.436, 363 228.582 C 363 232.519, 376.912 228.590, 383.498 222.793 C 389.837 217.213, 393.001 210.393, 392.914 202.500 C 392.836 195.438, 391.607 191.694, 387.439 185.816 C 381.213 177.035, 366.756 172.725, 356.385 176.556 M 197 177.656 C 195.625 177.867, 193.037 178.276, 191.250 178.565 L 188 179.091 188 215.054 L 188 251.017 193.750 250.259 C 204.419 248.851, 224.944 249.457, 232.299 251.398 C 238.863 253.130, 239.347 253.128, 246.299 251.346 C 254.141 249.336, 274.590 248.798, 285.250 250.322 L 291 251.144 291 215.189 L 291 179.233 288.250 178.599 C 286.738 178.250, 278.975 177.720, 271 177.420 C 258.323 176.944, 255.494 177.141, 248.500 178.985 C 238.589 181.599, 239.995 181.591, 230.590 179.097 C 224.502 177.483, 220.011 177.031, 211.090 177.136 C 204.716 177.211, 198.375 177.445, 197 177.656 M 207 180.735 C 205.075 180.877, 200.688 181.255, 197.250 181.576 L 191 182.159 191 209.641 L 191 237.123 195.750 236.386 C 204.344 235.054, 223.084 235.569, 230.312 237.335 C 234.059 238.251, 237.328 239, 237.578 239 C 237.828 239, 237.912 226.738, 237.766 211.750 L 237.500 184.500 230.734 182.810 C 224.035 181.136, 213.761 180.238, 207 180.735 M 256.500 181.117 C 253.200 181.548, 248.475 182.505, 246 183.244 L 241.500 184.587 241.234 211.794 C 241.088 226.757, 241.172 239, 241.422 239 C 241.672 239, 244.941 238.248, 248.688 237.329 C 255.811 235.581, 276.084 235.025, 283.250 236.381 L 287 237.091 287 209.617 L 287 182.144 281.750 181.613 C 270.994 180.527, 262.327 180.356, 256.500 181.117 M 209 188.487 C 208.175 188.696, 205.784 189.147, 203.688 189.490 C 200.875 189.950, 199.958 190.544, 200.191 191.754 C 200.460 193.151, 202.278 193.422, 212.503 193.586 C 219.102 193.693, 225.806 193.942, 227.402 194.140 C 231.776 194.682, 231.810 192.236, 227.454 190.416 C 223.884 188.925, 212.126 187.695, 209 188.487 M 254.689 189.365 C 248.908 190.995, 247.079 192.479, 248.768 194.168 C 249.658 195.058, 250.942 195.034, 254.173 194.066 C 256.808 193.277, 262.206 192.930, 268.439 193.148 C 277.066 193.451, 278.512 193.274, 278.782 191.879 C 279.173 189.864, 276.798 189.186, 267 188.520 C 262.209 188.194, 257.762 188.499, 254.689 189.365 M 207 199.666 C 201.391 200.550, 200 201.105, 200 202.460 C 200 204.729, 201.148 204.920, 208.933 203.942 C 214.594 203.231, 217.773 203.367, 222.812 204.536 C 226.885 205.481, 229.702 205.698, 230.287 205.113 C 233.902 201.498, 218.397 197.871, 207 199.666 M 253.799 200.517 C 244.514 203.509, 246.465 206.791, 256.188 204.536 C 261.227 203.367, 264.406 203.231, 270.067 203.942 C 277.786 204.911, 279 204.722, 279 202.548 C 279 200.599, 276.737 200.015, 267.115 199.481 C 261.017 199.142, 257.126 199.445, 253.799 200.517 M 341.994 203.934 C 334.884 206.097, 327.201 212.871, 324.498 219.360 C 317.026 237.299, 330.183 257.442, 349.307 257.343 C 352.817 257.325, 357.208 256.581, 359.443 255.626 C 363.331 253.964, 363.359 253.915, 361.443 252.060 C 359.709 250.382, 358.934 250.299, 354.229 251.292 C 332.751 255.823, 318.894 229.170, 335.111 214.519 C 340.141 209.975, 342.726 209, 349.749 209 C 356.971 209, 363.349 212.021, 366.861 217.105 C 369.639 221.126, 370.560 221.563, 372.998 220.023 C 376.600 217.745, 367.239 207.480, 358.684 204.326 C 355.092 203.002, 345.778 202.783, 341.994 203.934 M 373.322 204.326 C 369.079 205.893, 368.472 206.659, 370.007 208.509 C 371.041 209.754, 372.519 209.932, 377.400 209.400 C 380.755 209.034, 383.576 208.681, 383.669 208.615 C 383.762 208.550, 384.148 207.259, 384.527 205.748 C 385.202 203.058, 385.125 203.002, 380.858 203.076 C 378.461 203.118, 375.070 203.680, 373.322 204.326 M 394.793 209.250 C 394.565 210.734, 395.702 212.959, 398.133 215.788 C 407.609 226.812, 404.525 243.071, 391.751 249.437 C 388.609 251.003, 384.920 252, 382.272 252 C 366.415 252, 355.483 234.570, 362.649 220.713 C 363.798 218.490, 363.863 217.539, 362.940 216.428 C 359.387 212.146, 355.051 219.586, 355.032 230 C 355.016 238.178, 357.998 244.978, 363.954 250.347 C 369.585 255.424, 374.213 257.283, 381.500 257.396 C 390.056 257.529, 395.901 254.983, 401.762 248.570 C 407.241 242.575, 409 237.900, 409 229.330 C 409 222.177, 405.643 214.649, 400.398 210.045 C 396.258 206.409, 395.252 206.267, 394.793 209.250 M 206.500 210.655 C 205.400 210.888, 203.488 211.294, 202.250 211.558 C 199.921 212.055, 199.149 214.550, 201.121 215.207 C 201.738 215.413, 205.492 215.181, 209.465 214.692 C 215.127 213.996, 218.055 214.155, 223.019 215.426 C 229.717 217.142, 232.443 216.443, 230.092 213.611 C 227.836 210.892, 213.734 209.125, 206.500 210.655 M 254.338 211.082 C 249.715 212.194, 247.096 214.496, 248.667 216.067 C 249.309 216.709, 251.837 216.488, 255.981 215.426 C 260.945 214.155, 263.873 213.996, 269.535 214.692 C 273.508 215.181, 277.262 215.413, 277.879 215.207 C 279.606 214.631, 279.206 212.294, 277.250 211.534 C 274.198 210.347, 258.666 210.041, 254.338 211.082 M 342.062 212.940 C 340.870 213.695, 341.114 214.557, 343.487 217.982 C 346.560 222.416, 351.322 226.344, 352.363 225.304 C 353.764 223.903, 352.840 220.817, 349.750 216.580 C 346.480 212.097, 344.716 211.261, 342.062 212.940 M 204.193 221.728 C 200.823 222.143, 198.803 224.642, 200.826 225.892 C 201.440 226.272, 205.331 226.153, 209.473 225.628 C 215.622 224.848, 218.115 224.982, 223.063 226.358 C 229.304 228.093, 231 227.905, 231 225.480 C 231 222.270, 216.387 220.225, 204.193 221.728 M 252.750 222.600 C 248.309 223.965, 246.668 226.059, 248.939 227.462 C 249.455 227.781, 252.604 227.284, 255.937 226.358 C 260.885 224.982, 263.378 224.848, 269.527 225.628 C 277.418 226.628, 279.663 226.170, 278.734 223.749 C 277.622 220.852, 260.846 220.111, 252.750 222.600 M 374 231.169 C 372.095 231.825, 371.069 233.387, 369.687 237.733 C 367.971 243.132, 367.966 243.502, 369.605 244.701 C 372.091 246.518, 373.711 244.800, 375.582 238.364 C 377.588 231.465, 377.275 230.040, 374 231.169 M 166 305.869 C 166 333.534, 166.350 343.769, 167.530 350.619 C 174.162 389.102, 195.122 431.876, 220.666 459.056 C 238.982 478.546, 268.551 498.230, 292.616 506.953 L 298.733 509.171 305.616 506.456 C 331.762 496.145, 358.303 478.241, 376.886 458.378 C 399.863 433.820, 419.982 394.477, 428.194 358.048 C 430.151 349.364, 430.381 344.947, 430.736 309.250 L 431.126 270 298.563 270 L 166 270 166 305.869 M 234.250 284.732 C 229.824 285.131, 229.179 285.779, 231.200 287.800 C 232.133 288.733, 231.297 289, 227.434 289 C 222.517 289, 215.980 291.561, 215.241 293.776 C 215.040 294.379, 215.970 295.590, 217.308 296.466 L 219.740 298.060 216.620 301.325 C 211.153 307.047, 209.884 309.059, 210.505 311.015 C 210.833 312.050, 211.979 313.176, 213.051 313.516 C 215.916 314.425, 215.427 316.770, 211.930 318.897 L 208.859 320.764 211.834 322.882 C 213.470 324.047, 215.582 325, 216.527 325 C 217.856 325, 217.991 325.305, 217.124 326.351 C 216.507 327.094, 215.904 328.894, 215.783 330.351 C 215.662 331.808, 215.387 333, 215.171 333 C 214.954 333, 212.577 331.158, 209.889 328.907 C 205.248 325.022, 204.815 324.220, 201.366 313.157 C 197.599 301.072, 195.897 298, 192.967 298 C 192.020 298, 190.685 297.325, 190 296.500 C 189.315 295.675, 187.894 295, 186.842 295 C 185.233 295, 185.101 295.320, 186.011 297.021 C 187.418 299.650, 186.504 301, 183.319 301 C 181.410 301, 181.006 301.319, 181.738 302.250 C 182.956 303.798, 180.577 309.986, 178.747 310.030 C 178.059 310.047, 178.284 310.518, 179.250 311.080 C 180.405 311.753, 181 313.326, 181 315.705 C 181 318.565, 181.775 320.053, 184.750 322.905 C 186.813 324.882, 191.538 331.505, 195.252 337.622 C 202.517 349.590, 204 354.356, 204 365.743 C 204 371.098, 204.259 372.109, 205.500 371.607 C 206.325 371.273, 207.675 370.727, 208.500 370.393 C 210.155 369.723, 210.548 372.495, 210.060 381.393 L 209.791 386.285 212.852 384.105 C 214.536 382.906, 216.788 380.814, 217.856 379.456 C 219.027 377.967, 220.402 377.217, 221.316 377.568 C 222.151 377.888, 225.625 377.367, 229.038 376.409 L 235.241 374.669 237.047 377.063 L 238.853 379.457 240.999 376.728 C 243.882 373.064, 245 373.293, 245 377.550 C 245 381.537, 246.907 385.760, 251.140 391.147 L 254.006 394.795 250.601 408.147 C 248.729 415.491, 246.472 423.188, 245.585 425.250 C 244.147 428.595, 243.569 429.009, 240.237 429.086 C 230.849 429.303, 227.187 429.971, 223 432.232 C 218.256 434.792, 216.142 438.299, 219.942 437.305 C 222.248 436.702, 222.585 438.039, 220.914 441.160 C 219.943 442.975, 220.062 443.115, 222.039 442.488 C 224.751 441.627, 226.270 443.628, 224.878 446.228 C 224.020 447.831, 224.206 447.986, 226.338 447.451 C 227.685 447.113, 229.082 447.323, 229.450 447.919 C 229.817 448.514, 232.004 448.997, 234.309 448.994 C 238.374 448.989, 240.625 448.526, 251.803 445.398 L 257.106 443.913 261.424 434.707 C 267.482 421.791, 270.865 417.633, 280.092 411.760 C 287.645 406.952, 287.957 406.610, 286.382 404.869 C 285.120 403.475, 284.994 402.712, 285.856 401.673 C 286.899 400.417, 291.815 398.032, 296.386 396.564 C 298.180 395.988, 298.188 395.865, 296.538 394.042 C 295.584 392.988, 295.066 391.702, 295.386 391.185 C 296.608 389.207, 303.504 386.756, 307.616 386.839 C 311.258 386.912, 311.816 386.665, 311.299 385.213 C 310.964 384.271, 310.298 382.990, 309.819 382.367 C 308.952 381.237, 310.815 380, 313.385 380 C 314.057 380, 316.561 382.772, 318.951 386.161 C 321.340 389.549, 324.776 393.961, 326.586 395.964 L 329.877 399.606 326.369 408.053 C 324.439 412.699, 322.453 417.512, 321.955 418.750 C 321.251 420.499, 320.208 421.020, 317.275 421.088 C 308.277 421.299, 303.633 422.022, 302.044 423.460 C 301.108 424.307, 299.848 425, 299.243 425 C 297.910 425, 295 427.785, 295 429.060 C 295 429.564, 296.012 429.869, 297.250 429.738 C 299.520 429.498, 299.712 430.052, 298.464 433.258 C 297.917 434.664, 298.252 434.964, 300.140 434.758 C 302.539 434.496, 302.723 435.021, 301.414 438.390 C 300.792 439.988, 300.956 440.124, 302.484 439.269 C 303.799 438.533, 305.053 438.697, 307.104 439.874 C 309.743 441.389, 310.501 441.343, 319.209 439.147 C 324.319 437.858, 329.512 436.163, 330.749 435.380 C 331.985 434.597, 334.529 430.928, 336.401 427.228 C 339.191 421.714, 340.812 419.842, 345.382 416.855 C 350.116 413.761, 350.733 413.024, 349.467 411.973 C 347.482 410.325, 349.143 408.291, 354.396 405.936 L 358.292 404.190 354.343 402.175 C 348.144 399.012, 346.694 394.304, 349.648 386.922 L 351.295 382.804 355.380 387.652 C 357.627 390.318, 361.908 395.092, 364.894 398.260 L 370.323 404.019 368.596 410.260 C 366.211 418.879, 362.034 427.911, 359.907 429.050 C 358.930 429.572, 355.199 430, 351.616 430 C 345.997 430, 344.474 430.423, 340.550 433.071 C 335.759 436.304, 334.493 438.613, 338.146 437.454 C 340.384 436.743, 340.435 437.552, 338.462 442.366 C 337.774 444.045, 337.926 444.110, 339.976 443.013 C 342.614 441.601, 344.087 442.952, 343.279 446.043 C 342.908 447.459, 343.245 447.749, 344.788 447.345 C 345.881 447.059, 347.077 447.315, 347.446 447.913 C 347.816 448.511, 349.254 449, 350.642 449 C 354.279 449, 369.122 445.105, 371.615 443.496 C 372.827 442.714, 375.954 437.050, 378.940 430.231 C 384.002 418.670, 384.305 418.238, 389.604 415.026 C 394.719 411.926, 394.957 411.610, 393.445 409.939 C 391.679 407.988, 392.255 407.393, 399.500 403.681 L 402.500 402.144 397.926 400.103 C 395.411 398.981, 391.284 396.242, 388.756 394.016 C 383.060 389.002, 382.018 384.971, 381.956 367.701 C 381.932 360.990, 381.522 353.475, 381.043 351 C 380.565 348.525, 380.278 346.394, 380.405 346.265 C 380.532 346.136, 384.206 345.537, 388.568 344.934 C 404.327 342.756, 414.464 337.804, 417.963 330.576 C 420.485 325.367, 420.508 321.715, 418.053 316.309 C 414.005 307.392, 401.843 305.222, 385 310.410 C 365.090 316.544, 361.779 317.180, 347 317.712 C 337.535 318.053, 331.023 317.833, 328.247 317.078 C 323.006 315.653, 320.544 312.351, 321.495 308.023 C 322.573 303.116, 326.020 302, 340.101 302 C 351.386 302, 352.721 302.206, 357.900 304.750 C 362.816 307.164, 364.661 307.500, 373 307.500 C 378.225 307.500, 383.802 307.138, 385.394 306.695 C 388.281 305.892, 388.283 305.886, 386.144 304.388 C 382.967 302.163, 383.521 301.401, 388.007 301.829 C 390.333 302.051, 393.795 301.493, 396.257 300.500 C 398.591 299.558, 402.525 298.473, 405 298.089 L 409.500 297.390 406 295.199 C 403.659 293.733, 400.903 293.006, 397.679 293.004 C 393.295 293, 393 292.857, 394.429 291.429 C 397.047 288.810, 396.225 288.226, 391.458 289.317 C 388.063 290.094, 385.615 290.023, 381.768 289.037 C 371.908 286.510, 364.145 287.421, 357.041 291.937 C 355.102 293.170, 351.513 293.500, 340.041 293.500 C 326.512 293.500, 325.157 293.674, 320.568 296 C 314.687 298.981, 312 303.399, 312 310.087 C 312 316.244, 315.115 320.806, 321.501 324 C 326.015 326.257, 327.907 326.532, 341 326.832 C 353.545 327.118, 357.118 326.820, 367.500 324.618 C 374.100 323.218, 383.263 320.931, 387.863 319.536 C 402.027 315.241, 409 316.572, 409 323.571 C 409 327.936, 405.556 330.241, 395.538 332.578 C 384.820 335.079, 318.407 335.086, 305.374 332.587 C 297.490 331.076, 296.094 330.502, 295.124 328.372 C 293.686 325.216, 293.706 325, 295.444 325 C 296.239 325, 298.124 323.937, 299.635 322.637 L 302.382 320.275 299.941 318.988 C 296.160 316.994, 294.660 314, 297.443 314 C 298.237 314, 299.580 313.009, 300.428 311.799 C 301.834 309.793, 301.811 309.416, 300.170 307.549 C 299.179 306.422, 297.623 304.297, 296.711 302.826 C 295.799 301.355, 294.109 299.852, 292.955 299.486 C 290.959 298.852, 291.007 298.708, 293.921 296.558 C 296.807 294.429, 296.884 294.205, 295.241 292.718 C 292.676 290.397, 288.403 289, 283.868 289 C 280.382 289, 279.944 288.753, 280.472 287.089 C 281.020 285.363, 280.360 285.111, 273.661 284.483 C 264.152 283.592, 260.599 284.420, 257.625 288.220 C 255.369 291.103, 255.187 291.164, 254.576 289.239 C 253.208 284.931, 247.096 283.575, 234.250 284.732 M 324.942 296.948 C 317.818 299.110, 315 302.966, 315 310.550 C 315 314.480, 315.512 315.712, 318.310 318.510 C 323.073 323.273, 328.280 324.457, 344 324.351 C 358.396 324.255, 368.557 322.534, 385 317.407 C 390.303 315.754, 396.071 314.709, 400.336 314.629 C 406.662 314.510, 407.352 314.709, 409.586 317.306 C 411.128 319.098, 412 321.356, 412 323.556 C 412 329.449, 407.035 332.888, 394.963 335.358 C 386.256 337.140, 382.992 337.221, 340.500 336.710 C 316.201 336.418, 307.004 335.956, 302.284 334.794 L 296.069 333.262 294.894 336.881 C 294.249 338.872, 292.159 343.501, 290.250 347.168 C 288.342 350.836, 286.655 355.336, 286.502 357.168 C 286.195 360.827, 284.541 361.152, 280.250 358.398 L 278 356.954 278 363.510 C 278 368.557, 277.412 371.226, 275.447 375.104 L 272.894 380.142 269.947 376.434 C 267.207 372.986, 267 372.893, 266.994 375.112 C 266.984 379.788, 264.886 384.935, 260.641 390.702 C 257.218 395.351, 255.858 398.494, 254.008 406.025 C 251.233 417.323, 247.472 428.726, 245.893 430.628 C 245.113 431.568, 242.355 432.005, 237.128 432.015 C 229.063 432.032, 227.745 432.441, 226.708 435.250 C 226.265 436.452, 226.559 437, 227.648 437 C 228.800 437, 229.102 437.684, 228.755 439.500 C 228.355 441.596, 228.659 442, 230.639 442 C 232.496 442, 233 442.538, 233 444.519 C 233 447.327, 232.102 447.333, 245 444.444 C 254.491 442.319, 256.344 441.134, 257.805 436.257 C 258.455 434.088, 264.641 422.917, 271.553 411.432 C 283.281 391.943, 284.099 390.251, 283.810 386.077 L 283.500 381.605 309.185 374.053 C 323.312 369.899, 335.156 366.206, 335.505 365.847 C 335.853 365.488, 335.556 364.262, 334.844 363.122 C 333.993 361.759, 333.888 360.712, 334.537 360.063 C 336.271 358.329, 341.545 363.563, 349.364 374.780 C 353.474 380.676, 360.474 389.491, 364.919 394.368 C 369.363 399.246, 373 403.784, 373 404.453 C 373 406.617, 368.937 418.317, 365.779 425.250 L 362.704 432 355.043 432 C 349.855 432, 346.756 432.474, 345.441 433.468 C 344.374 434.276, 343.893 434.951, 344.372 434.968 C 344.852 434.986, 344.651 435.715, 343.926 436.589 C 342.792 437.956, 342.880 438.130, 344.554 437.839 C 346.100 437.570, 346.466 438.033, 346.333 440.095 C 346.189 442.332, 346.500 442.627, 348.583 442.229 C 350.523 441.858, 351 442.184, 351 443.883 C 351 445.239, 351.629 445.994, 352.750 445.983 C 356.101 445.950, 369.318 442.111, 370.644 440.785 C 371.378 440.051, 374.181 434.429, 376.872 428.292 C 379.563 422.155, 383.861 413.194, 386.423 408.379 L 391.080 399.624 387.044 396.062 C 381.225 390.927, 380.006 387.090, 379.967 373.782 C 379.937 363.258, 379.073 353.737, 377.483 346.405 L 376.812 343.309 384.156 342.677 C 405.073 340.877, 417.006 333.946, 416.996 323.602 C 416.991 317.749, 414.101 313.586, 408.578 311.477 C 402.345 309.096, 395.210 309.862, 381.086 314.428 C 355.773 322.611, 325.802 323.266, 320.537 315.750 C 318.064 312.218, 318.552 305.721, 321.514 302.759 C 324.762 299.511, 327.632 299, 342.625 299 C 354.120 299, 358.109 298.066, 352.750 296.630 C 349.552 295.773, 328.002 296.020, 324.942 296.948 M 244.063 299.109 C 241.275 300.346, 238.605 300.853, 236.878 300.473 C 234.875 300.033, 233.571 300.429, 232.065 301.935 C 229.508 304.492, 229.466 306.119, 231.882 309.103 C 233.616 311.244, 233.645 311.677, 232.251 314.600 C 230.744 317.760, 230.758 317.797, 235.869 323.938 C 240.222 329.169, 241.005 330.740, 241.031 334.302 C 241.056 337.593, 241.596 338.888, 243.531 340.297 C 244.918 341.306, 246 341.609, 246 340.988 C 246 340.380, 246.477 340.177, 247.060 340.537 C 247.644 340.898, 249.444 340.645, 251.060 339.975 C 255.011 338.339, 254.897 335.234, 250.759 331.777 L 247.500 329.054 253.250 329.027 L 259 329 259 320.500 L 259 312 264.750 312.009 L 270.500 312.019 266.146 314.628 L 261.792 317.237 262.474 323.606 L 263.157 329.975 259.578 332.086 C 257.054 333.576, 256 334.905, 256 336.599 C 256 337.919, 256.113 339.007, 256.250 339.015 C 256.387 339.023, 258.251 339.640, 260.392 340.385 C 263.969 341.630, 264.475 341.574, 266.642 339.690 C 268.372 338.185, 269 336.592, 269 333.705 C 269 330.401, 269.832 328.811, 274.201 323.768 L 279.402 317.765 277.697 314.795 C 276.067 311.954, 276.079 311.714, 277.996 309.278 C 280.532 306.054, 280.519 304.519, 277.935 301.935 C 276.390 300.390, 275.142 300.029, 272.984 300.503 C 271.074 300.923, 268.518 300.438, 265.422 299.069 C 259.528 296.461, 258.612 296.480, 256.649 299.250 L 255.055 301.500 253.117 299.250 C 250.801 296.560, 249.844 296.545, 244.063 299.109 M 190.250 301.713 C 187.707 302.195, 187.436 303.036, 189.242 304.842 C 190.230 305.830, 190.180 306.281, 188.992 307.055 C 188.171 307.589, 186.713 307.837, 185.750 307.607 C 183.384 307.039, 183.544 308.885, 186.097 311.603 L 188.193 313.835 185.401 315.298 L 182.608 316.761 186.806 321.131 C 191.204 325.707, 192.349 327.484, 207.788 353.688 C 213.034 362.591, 218.328 371.133, 219.554 372.670 L 221.782 375.465 227.641 373.982 C 232.062 372.864, 233.480 372.071, 233.417 370.750 C 233.371 369.788, 233.258 366.578, 233.167 363.618 L 233 358.236 229.250 359.532 L 225.500 360.828 224.931 357.164 C 224.041 351.439, 216.603 337.699, 212.829 334.806 C 204.597 328.498, 202.629 325.557, 198.500 313.396 C 196.300 306.916, 194.050 301.541, 193.500 301.451 C 192.950 301.361, 191.488 301.479, 190.250 301.713 M 244.500 314.358 C 248.913 316.923, 250 316.841, 250 313.941 C 250 312.290, 249.291 312.002, 245.250 312.016 L 240.500 312.033 244.500 314.358 M 249.750 341.729 C 245.924 342.129, 244.967 343.823, 246.871 346.826 C 247.932 348.499, 254.767 349.454, 259.429 348.579 C 262.114 348.076, 263.138 347.300, 263.612 345.410 C 263.958 344.033, 264.074 342.764, 263.870 342.589 C 263.118 341.943, 253.381 341.350, 249.750 341.729 M 676.709 362.624 C 676.319 363.014, 676 372.033, 676 382.667 L 676 402 679.021 402 L 682.042 402 681.771 382.250 C 681.510 363.232, 681.424 362.489, 679.459 362.208 C 678.336 362.047, 677.099 362.235, 676.709 362.624 M 567 366 C 567 368.533, 567.389 369, 569.500 369 C 571.611 369, 572 368.533, 572 366 C 572 363.467, 571.611 363, 569.500 363 C 567.389 363, 567 363.467, 567 366 M 775 366 C 775 368.667, 775.333 369, 778 369 C 780.667 369, 781 368.667, 781 366 C 781 363.333, 780.667 363, 778 363 C 775.333 363, 775 363.333, 775 366 M 888 366 C 888 368.667, 888.333 369, 891 369 C 893.667 369, 894 368.667, 894 366 C 894 363.333, 893.667 363, 891 363 C 888.333 363, 888 363.333, 888 366 M 478 383.440 L 478 402 480.500 402 L 483 402 483 387.300 C 483 378.188, 483.355 372.961, 483.933 373.550 C 484.447 374.072, 488.220 380.575, 492.319 388 C 499.596 401.184, 499.855 401.507, 503.385 401.810 L 507 402.121 507 383.560 L 507 365 504.527 365 L 502.053 365 501.777 379.750 L 501.500 394.500 493.498 380 C 485.561 365.617, 485.466 365.497, 481.748 365.190 L 478 364.879 478 383.440 M 705.004 379.250 C 705.007 391.779, 705.251 393.900, 707.026 396.810 C 710.712 402.857, 721.093 404.790, 727.465 400.615 C 732.117 397.566, 733.249 393.654, 733.785 378.770 L 734.280 365 731.215 365 L 728.151 365 727.826 378.923 C 727.518 392.057, 727.363 392.991, 725.076 395.423 C 723.329 397.279, 721.630 398, 719 398 C 716.370 398, 714.671 397.279, 712.924 395.423 C 710.637 392.991, 710.482 392.057, 710.174 378.923 L 709.849 365 707.424 365 L 705 365 705.004 379.250 M 549.750 367.689 C 548.513 368.013, 548 369.151, 548 371.573 C 548 374.714, 547.750 375, 545 375 C 542.667 375, 542 375.444, 542 377 C 542 378.556, 542.667 379, 545 379 L 548 379 548 388.927 C 548 398.461, 548.105 398.937, 550.635 400.927 C 554.744 404.160, 561 403.495, 561 399.826 C 561 398.333, 560.532 398.014, 559.038 398.488 C 557.959 398.831, 556.159 398.620, 555.038 398.020 C 553.220 397.047, 553 395.962, 553 387.965 L 553 379 556.500 379 C 559.333 379, 560 378.619, 560 377 C 560 375.381, 559.333 375, 556.500 375 C 553.083 375, 553 374.905, 553 371 C 553 368.800, 552.663 367.052, 552.250 367.116 C 551.837 367.180, 550.712 367.438, 549.750 367.689 M 906.750 367.689 C 905.513 368.013, 905 369.151, 905 371.573 C 905 374.714, 904.750 375, 902 375 C 899.667 375, 899 375.444, 899 377 C 899 378.556, 899.667 379, 902 379 L 905 379 905 388.929 C 905 399.576, 905.730 401.392, 910.491 402.587 C 914.191 403.516, 916.473 402.671, 916.819 400.245 C 917.053 398.606, 916.740 398.162, 915.647 398.582 C 914.827 398.897, 913.221 398.654, 912.078 398.042 C 910.211 397.043, 910 396.019, 910 387.965 L 910 379 913.500 379 C 916.333 379, 917 378.619, 917 377 C 917 375.381, 916.333 375, 913.500 375 C 910.083 375, 910 374.905, 910 371 C 910 368.800, 909.663 367.052, 909.250 367.116 C 908.837 367.180, 907.712 367.438, 906.750 367.689 M 329.280 373.850 C 327.599 374.342, 327.292 374.865, 328.015 376 C 329.686 378.625, 329.122 379, 323.500 379 C 320.475 379, 318 379.268, 318 379.596 C 318 380.607, 322.098 386.231, 327.164 392.171 C 329.824 395.290, 332.003 398.665, 332.008 399.671 C 332.012 400.677, 329.923 406.563, 327.366 412.750 L 322.716 424 314.608 424.015 C 306.066 424.031, 304.752 424.421, 303.708 427.250 C 303.265 428.452, 303.559 429, 304.648 429 C 305.806 429, 306.102 429.684, 305.747 431.541 C 305.340 433.674, 305.602 434.035, 307.381 433.791 C 309.016 433.566, 309.482 434.014, 309.421 435.750 C 309.363 437.394, 309.907 438, 311.441 438 C 314.484 438, 328.216 434.066, 329.820 432.735 C 330.570 432.112, 333.890 426.179, 337.198 419.551 C 340.506 412.923, 344.306 406.046, 345.642 404.270 C 347.979 401.163, 348.010 400.919, 346.448 397.899 C 345.089 395.272, 345.010 394.017, 345.964 390.228 C 346.592 387.736, 347.733 384.484, 348.500 383 C 349.827 380.434, 349.713 380.126, 346.155 376.652 C 342.735 373.312, 341.950 373.009, 336.958 373.100 C 333.956 373.155, 330.501 373.492, 329.280 373.850 M 521 375.306 C 518.595 376.127, 517.400 377.204, 517.180 378.750 C 516.834 381.190, 517.931 381.669, 519.736 379.864 C 521.618 377.982, 529.130 378.457, 530.664 380.555 C 532.884 383.591, 532.278 385, 528.750 385.006 C 523.381 385.015, 518.215 386.911, 516.045 389.669 C 509.868 397.522, 520.371 406.519, 529.457 401.158 C 532.286 399.488, 533 399.363, 533 400.534 C 533 401.340, 533.900 402, 535 402 C 536.874 402, 537 401.333, 537 391.434 C 537 385.623, 536.514 379.960, 535.920 378.850 C 534.772 376.706, 529.256 373.962, 526.282 374.056 C 525.302 374.087, 522.925 374.650, 521 375.306 M 587.071 375.698 C 581.715 378.513, 579.571 382.172, 579.571 388.500 C 579.571 394.845, 581.739 398.529, 587.071 401.248 C 593.709 404.633, 600.945 402.419, 605.005 395.759 C 612.125 384.082, 599.017 369.419, 587.071 375.698 M 624 374.664 C 623.175 374.992, 621.712 375.947, 620.750 376.785 C 619.174 378.158, 619 378.145, 619 376.655 C 619 375.556, 618.160 375, 616.500 375 L 614 375 614 388.500 L 614 402 616.500 402 C 618.980 402, 619 401.930, 619 393.056 C 619 385.180, 619.269 383.816, 621.250 381.637 C 624.423 378.147, 627.254 377.575, 630.070 379.856 C 632.196 381.577, 632.458 382.720, 632.826 391.879 C 633.227 401.868, 633.265 402, 635.705 402 L 638.177 402 637.838 391.020 C 637.524 380.804, 637.322 379.863, 634.946 377.489 C 632.404 374.950, 626.869 373.521, 624 374.664 M 651.250 375.069 C 648.765 375.825, 648 376.620, 648 378.448 C 648 380.821, 648.029 380.828, 651.889 379.312 C 655.224 378.001, 656.184 377.979, 658.639 379.151 C 660.212 379.903, 661.636 381.466, 661.802 382.624 C 662.072 384.506, 661.460 384.803, 656.050 385.415 C 648.242 386.298, 644.600 389.154, 644.600 394.393 C 644.600 399.773, 647.736 402.500, 653.923 402.500 C 657.306 402.500, 659.432 401.919, 660.895 400.595 C 662.753 398.914, 663 398.884, 663 400.345 C 663 401.462, 663.848 402, 665.607 402 C 667.573 402, 668.065 401.611, 667.607 400.418 C 667.273 399.548, 667 394.623, 667 389.474 C 667 381.205, 666.737 379.806, 664.748 377.494 C 662.173 374.500, 656.485 373.478, 651.250 375.069 M 752.352 374.947 C 751.171 375.449, 749.907 376.341, 749.543 376.930 C 748.573 378.500, 747 378.234, 747 376.500 C 747 375.567, 746.056 375, 744.500 375 L 742 375 742 388.500 L 742 402 745 402 L 748 402 748 393.547 C 748 383.824, 749.161 380.488, 753.013 379.145 C 759.457 376.899, 761.822 381.165, 761.942 395.250 C 761.998 401.768, 762.086 402, 764.500 402 C 766.965 402, 767 401.885, 766.994 393.750 C 766.988 384.296, 765.798 379.032, 763.118 376.607 C 760.851 374.555, 755.290 373.698, 752.352 374.947 M 822.270 375.483 C 817.057 377.749, 814.825 382.327, 815.252 389.882 C 815.572 395.559, 815.959 396.575, 818.762 399.078 C 822.452 402.376, 827.846 403.639, 832.901 402.390 C 835.889 401.651, 836.557 401.001, 836.835 398.557 C 837.102 396.209, 836.900 395.832, 835.835 396.691 C 833.208 398.812, 828.266 399.189, 825.030 397.516 C 822.516 396.216, 820 392.692, 820 390.471 C 820 390.252, 824.388 389.944, 829.750 389.786 L 839.500 389.500 839.149 386.005 C 838.621 380.748, 836.257 377.006, 832.466 375.421 C 828.279 373.672, 826.409 373.683, 822.270 375.483 M 853.635 376.073 C 851.451 377.791, 851 377.876, 851 376.573 C 851 375.562, 850.107 375, 848.500 375 L 846 375 846 388.500 L 846 402 848.500 402 C 850.940 402, 851 401.823, 851 394.649 C 851 383.388, 853.225 379, 858.934 379 C 860.471 379, 861 378.360, 861 376.500 C 861 373.296, 857.428 373.089, 853.635 376.073 M 869.242 375.494 C 865.072 377.307, 863.262 381.493, 865.161 384.935 C 865.900 386.275, 868.528 388.552, 871.002 389.996 C 876.374 393.130, 877.435 396.389, 873.646 398.115 C 871.842 398.937, 870.308 398.954, 868.078 398.177 C 865.197 397.173, 865 397.258, 865 399.507 C 865 401.450, 865.654 402.032, 868.422 402.551 C 874.980 403.782, 879.863 401.462, 881.407 396.382 C 882.555 392.605, 880.370 389.221, 875.039 386.520 C 871.585 384.770, 870 383.353, 870 382.018 C 870 379.251, 873.088 377.878, 876.872 378.963 C 879.733 379.784, 880 379.663, 880 377.547 C 880 373.962, 874.974 373.003, 869.242 375.494 M 567 388.500 L 567 402 569.500 402 L 572 402 572 388.500 L 572 375 569.500 375 L 567 375 567 388.500 M 776 388.500 L 776 402 778.500 402 L 781 402 781 388.500 L 781 375 778.500 375 L 776 375 776 388.500 M 789.649 384.750 C 791.609 390.113, 793.772 396.075, 794.457 398 C 795.539 401.043, 796.133 401.500, 799.005 401.500 C 802.072 401.500, 802.433 401.142, 804.041 396.500 C 804.994 393.750, 807.143 387.788, 808.817 383.250 L 811.860 375 809.127 375 C 806.538 375, 806.214 375.555, 802.999 385.502 C 801.132 391.279, 799.300 395.666, 798.927 395.252 C 798.554 394.839, 796.806 390.113, 795.042 384.750 C 791.974 375.422, 791.711 375, 788.961 375 L 786.086 375 789.649 384.750 M 888 388.500 L 888 402 890.500 402 L 893 402 893 388.500 L 893 375 890.500 375 L 888 375 888 388.500 M 921.652 381.750 C 928.521 399.844, 929.400 402.959, 928.428 405.762 C 927.789 407.605, 926.420 408.813, 924.239 409.457 C 919.835 410.758, 919.719 414, 924.077 414 C 928.919 414, 932.125 409.849, 936.436 398 C 938.538 392.225, 941.304 384.688, 942.584 381.250 L 944.910 375 942.152 375 C 939.531 375, 939.224 375.525, 936 385.500 C 934.134 391.275, 932.357 395.991, 932.053 395.981 C 931.749 395.970, 930.020 391.245, 928.210 385.481 C 925.022 375.322, 924.831 375, 922.005 375 L 919.090 375 921.652 381.750 M 590.357 379.001 C 587.024 380.331, 585 384.034, 585 388.799 C 585 392.279, 585.587 393.741, 587.923 396.077 C 591.232 399.386, 592.860 399.641, 597.003 397.498 C 602.192 394.815, 603.146 385.304, 598.639 381.185 C 595.891 378.673, 593.053 377.925, 590.357 379.001 M 824.894 379.198 C 822.772 379.909, 820 383.504, 820 385.547 C 820 385.796, 823.150 386, 827 386 C 834.481 386, 835.305 385.307, 832.531 381.347 C 830.709 378.746, 828.283 378.063, 824.894 379.198 M 523 390.290 C 518.245 392.687, 519.867 399, 525.237 399 C 527.926 399, 532 394.510, 532 391.545 C 532 389.337, 531.569 389.002, 528.750 389.015 C 526.962 389.023, 524.375 389.597, 523 390.290 M 653.352 389.993 C 650.471 391.156, 649.691 392.633, 650.421 395.542 C 651.163 398.496, 654.898 399.652, 658.157 397.935 C 661.204 396.329, 661.966 395.099, 661.985 391.750 C 661.998 389.298, 661.648 389.007, 658.750 389.063 C 656.962 389.098, 654.534 389.517, 653.352 389.993 M 520 424.809 C 516.062 425.397, 514.084 427.889, 513.387 433.141 C 512.785 437.675, 512.550 438, 509.871 438 C 507.667 438, 507 438.464, 507 440 C 507 441.556, 507.667 442, 510 442 L 513 442 513 453.500 L 513 465 515.500 465 L 518 465 518 453.500 L 518 442 522 442 C 525.333 442, 526 441.667, 526 440 C 526 438.333, 525.333 438, 522 438 C 518.373 438, 518 437.761, 518 435.434 C 518 431.237, 519.750 429, 523.035 429 C 525.272 429, 526 428.538, 526 427.117 C 526 425.052, 523.868 424.233, 520 424.809 M 571 429 C 571 431.667, 571.333 432, 574 432 C 576.667 432, 577 431.667, 577 429 C 577 426.333, 576.667 426, 574 426 C 571.333 426, 571 426.333, 571 429 M 549.021 428.116 C 545.165 429.654, 543.094 431.983, 542.429 435.526 C 541.502 440.466, 543.916 443.923, 551.133 447.994 C 556.614 451.085, 557.543 452.023, 557.809 454.731 C 558.260 459.324, 554.651 461.477, 547.982 460.592 C 543.171 459.954, 543 460.016, 543 462.404 C 543 464.577, 543.559 464.961, 547.600 465.567 C 552.989 466.375, 558.898 464.875, 561.455 462.049 C 562.435 460.967, 563.452 458.150, 563.716 455.791 C 564.300 450.557, 561.891 446.990, 555.655 443.856 C 547.555 439.784, 545.897 436.424, 550.498 433.409 C 552.365 432.186, 554.135 431.943, 557.498 432.447 C 561.784 433.090, 562 433.006, 562 430.692 C 562 428.660, 561.385 428.160, 558.250 427.642 C 553.413 426.842, 552.036 426.913, 549.021 428.116 M 483.316 438.896 C 480.847 440.045, 478.491 442.084, 477.566 443.872 C 475.408 448.046, 475.565 455.774, 477.886 459.580 C 479.978 463.011, 485.385 466, 489.500 466 C 493.615 466, 499.022 463.011, 501.114 459.580 C 503.386 455.855, 503.606 448.072, 501.551 444.099 C 498.378 437.964, 490.284 435.654, 483.316 438.896 M 595.352 437.947 C 594.171 438.449, 592.907 439.341, 592.543 439.930 C 591.573 441.500, 590 441.234, 590 439.500 C 590 438.667, 589.111 438, 588 438 C 586.099 438, 586 438.667, 586 451.500 L 586 465 588.500 465 C 590.980 465, 591 464.930, 591 456.056 C 591 448.158, 591.270 446.798, 593.306 444.431 C 595.939 441.369, 600.289 440.860, 602.754 443.325 C 603.965 444.537, 604.349 447.221, 604.415 454.943 L 604.500 464.986 607.250 464.993 L 610 465 610 455.968 C 610 446.786, 608.696 441.650, 605.744 439.202 C 603.673 437.484, 598.040 436.804, 595.352 437.947 M 623.449 438.551 C 617.358 441.558, 614.649 450.174, 617.471 457.564 C 620.111 464.475, 627.216 467.008, 634.050 463.474 L 637 461.949 637 465.020 C 637 466.986, 636.074 469.017, 634.425 470.666 C 632.194 472.897, 631.227 473.174, 627.175 472.741 C 624.604 472.467, 621.772 471.937, 620.881 471.565 C 619.756 471.094, 619.099 471.514, 618.725 472.942 C 618.015 475.657, 619.048 476.164, 626.354 476.687 C 633.444 477.193, 638.658 475.130, 640.721 471 C 641.554 469.333, 641.975 463.416, 641.985 453.250 L 642 438 639.500 438 C 637.792 438, 636.995 438.554, 636.985 439.750 C 636.974 440.922, 636.720 441.108, 636.214 440.313 C 635.331 438.924, 630.612 436.990, 628.185 437.023 C 627.258 437.035, 625.127 437.723, 623.449 438.551 M 655.250 438.491 C 653.193 439.385, 652 440.612, 652 441.835 C 652 443.649, 652.241 443.683, 655.973 442.397 C 660.544 440.823, 664.261 441.751, 665.939 444.886 C 667.486 447.776, 667.329 447.999, 663.750 448.006 C 655.363 448.020, 649 451.946, 649 457.107 C 649 461.196, 649.945 462.920, 653.072 464.537 C 656.702 466.414, 660.338 466.394, 664.050 464.474 C 665.741 463.600, 667 463.386, 667 463.974 C 667 464.538, 668.125 465, 669.500 465 C 671.988 465, 672 464.957, 672 455.649 C 672 443.921, 670.803 440.233, 666.397 438.392 C 662.243 436.657, 659.412 436.682, 655.250 438.491 M 688.750 438.834 C 685.813 440.361, 685 440.482, 685 439.392 C 685 438.574, 683.970 438, 682.500 438 L 680 438 680 457 L 680 476 682.500 476 C 684.934 476, 685 475.810, 685 468.845 C 685 461.850, 685.043 461.729, 686.922 463.430 C 687.980 464.387, 690.606 465.406, 692.760 465.695 C 701.305 466.841, 706.561 460.438, 705.793 449.818 C 705.437 444.898, 704.864 443.403, 702.383 440.922 C 698.472 437.010, 693.669 436.275, 688.750 438.834 M 719.415 438.369 C 707.145 443.920, 709.294 463.089, 722.464 465.559 C 736.797 468.248, 744.818 448.430, 732.913 439.741 C 729.510 437.257, 723.274 436.624, 719.415 438.369 M 755 437.691 C 754.175 438.004, 752.712 438.947, 751.750 439.785 C 750.174 441.158, 750 441.145, 750 439.655 C 750 438.556, 749.160 438, 747.500 438 L 745 438 745 451.500 L 745 465 748 465 L 751 465 751 456.135 C 751 445.715, 752.877 442, 758.142 442 C 760.678 442, 761.090 441.654, 760.820 439.750 C 760.495 437.465, 757.957 436.567, 755 437.691 M 774 437.652 C 769.744 439.054, 767.827 440.726, 765.892 444.724 C 763.574 449.512, 763.777 454.734, 766.485 459.970 C 770.143 467.044, 787 468.364, 787 461.576 C 787 459.123, 786.969 459.115, 783.396 460.608 C 778.857 462.504, 774.655 461.648, 772.012 458.288 C 768.294 453.562, 769.089 453, 779.500 453 L 789 453 789 449.901 C 789 441.533, 781.302 435.246, 774 437.652 M 571 451.500 L 571 465 573.500 465 L 576 465 576 451.500 L 576 438 573.500 438 L 571 438 571 451.500 M 486.351 442.494 C 480.373 445.008, 479.292 455.206, 484.522 459.750 C 489.745 464.288, 496.660 460.955, 497.672 453.411 C 498.752 445.357, 492.919 439.733, 486.351 442.494 M 627.320 442.077 C 619.251 445.062, 620.766 461, 629.118 461 C 633.697 461, 637 457.095, 637 451.680 C 637 444.738, 632.417 440.192, 627.320 442.077 M 691.053 442.176 C 686.107 444.006, 683.966 450.589, 686.413 456.445 C 689.385 463.560, 696.649 463.478, 699.650 456.295 C 703.135 447.955, 698.042 439.591, 691.053 442.176 M 722.308 442.019 C 715.250 444.832, 714.803 457.767, 721.657 460.890 C 725.378 462.585, 726.896 462.258, 730.077 459.077 C 737.024 452.130, 730.865 438.608, 722.308 442.019 M 774.315 442.016 C 772.166 442.873, 770 445.844, 770 447.934 C 770 448.588, 772.732 449, 777.067 449 C 783.930 449, 784.115 448.935, 783.460 446.750 C 782.171 442.451, 778.279 440.436, 774.315 442.016 M 657.796 453.147 C 653.999 454.536, 653.138 457.883, 655.984 460.188 C 657.215 461.185, 659.092 462, 660.156 462 C 662.914 462, 667 457.549, 667 454.545 C 667 452.324, 666.586 452.010, 663.750 452.079 C 661.962 452.122, 659.283 452.603, 657.796 453.147" stroke="none" fill-rule="evenodd"/></svg>